<svg width="416" height="128" viewBox="0 0 416 128" fill="none" xmlns="http://www.w3.org/2000/svg">
<rect width="416" height="128" rx="16" fill="#2E2E33"/>
<path d="M94.0061 83.0299C91.9833 87.3591 91.0181 89.3002 88.4135 93.1185C84.7909 98.4694 79.6611 105.136 73.315 105.174C67.6828 105.225 66.2285 101.624 58.5734 101.688C50.9184 101.713 49.3186 105.238 43.6732 105.187C37.3402 105.136 32.4881 99.1206 28.8523 93.7954C18.6852 78.8412 17.6143 61.3074 23.8943 51.985C28.3366 45.3699 35.3703 41.4877 41.9809 41.4877C48.6972 41.4877 52.928 45.0506 58.4941 45.0506C63.8883 45.0506 67.1671 41.4749 74.9544 41.4749C80.8246 41.4749 87.0518 44.5654 91.4941 49.9162C76.9508 57.604 79.3174 77.6663 94.0061 83.0299ZM69.0446 35.4983C71.8739 31.9993 74.0157 27.0443 73.2489 22C68.6215 22.3065 63.2272 25.1543 60.0674 28.8322C57.2116 32.1908 54.845 37.184 55.7705 42.0113C60.8078 42.1645 66.0169 39.2656 69.0446 35.4983Z" fill="white"/>
<path d="M122.838 38.1069C122.838 37.3732 122.561 36.7892 122.007 36.355C121.453 35.9207 120.7 35.7036 119.75 35.7036C118.933 35.7036 118.252 35.9207 117.706 36.355C117.159 36.7817 116.886 37.3358 116.886 38.0171H114.056C114.056 37.1261 114.303 36.3325 114.797 35.6362C115.291 34.9399 115.976 34.4009 116.852 34.019C117.728 33.6297 118.694 33.4351 119.75 33.4351C121.621 33.4351 123.074 33.8431 124.107 34.6592C125.148 35.4753 125.668 36.617 125.668 38.0845C125.668 38.8257 125.443 39.507 124.994 40.1284C124.545 40.7498 123.916 41.2402 123.107 41.5996C124.021 41.9141 124.717 42.3932 125.196 43.0371C125.683 43.6735 125.926 44.4671 125.926 45.418C125.926 46.8854 125.365 48.0534 124.242 48.9219C123.119 49.7829 121.621 50.2134 119.75 50.2134C118.597 50.2134 117.552 50.0075 116.616 49.5957C115.688 49.1839 114.988 48.6224 114.516 47.9111C114.052 47.1999 113.82 46.3838 113.82 45.4629H116.65C116.65 46.1667 116.942 46.7619 117.526 47.2485C118.11 47.7277 118.851 47.9673 119.75 47.9673C120.753 47.9673 121.558 47.7314 122.164 47.2598C122.778 46.7881 123.085 46.1742 123.085 45.418C123.085 44.4971 122.815 43.8307 122.276 43.4189C121.745 42.9997 120.962 42.79 119.929 42.79H118.009V40.5439H119.828C121.835 40.5439 122.838 39.7316 122.838 38.1069ZM137.718 46.1929H131.384L130.059 50H127.105L133.282 33.6484H135.832L142.02 50H139.055L137.718 46.1929ZM132.182 43.9019H136.921L134.551 37.1187L132.182 43.9019ZM154.339 35.9395H146.792V50H143.962V33.6484H154.339V35.9395ZM159.55 43.9243V50H156.709V33.6484H162.964C164.791 33.6484 166.24 34.1239 167.311 35.0747C168.389 36.0256 168.928 37.2834 168.928 38.8481C168.928 40.4504 168.4 41.6969 167.344 42.5879C166.296 43.4788 164.825 43.9243 162.931 43.9243H159.55ZM159.55 41.6445H162.964C163.975 41.6445 164.746 41.4087 165.278 40.937C165.809 40.4578 166.075 39.769 166.075 38.8706C166.075 37.9871 165.806 37.2834 165.267 36.7593C164.728 36.2277 163.986 35.9544 163.043 35.9395H159.55V41.6445ZM177.306 42.1948L180.585 33.6484H183.741L178.047 47.2148L177.53 48.2368C176.782 49.5695 175.569 50.2358 173.892 50.2358L172.724 50.1685L172.746 47.9224C172.926 47.9523 173.244 47.9673 173.701 47.9673C174.509 47.9673 175.078 47.6229 175.408 46.9341L175.992 45.5527L170.399 33.6484H173.499L177.306 42.1948ZM194.084 38.1069C194.084 37.3732 193.807 36.7892 193.253 36.355C192.699 35.9207 191.946 35.7036 190.996 35.7036C190.18 35.7036 189.498 35.9207 188.952 36.355C188.405 36.7817 188.132 37.3358 188.132 38.0171H185.302C185.302 37.1261 185.549 36.3325 186.043 35.6362C186.537 34.9399 187.222 34.4009 188.098 34.019C188.974 33.6297 189.94 33.4351 190.996 33.4351C192.867 33.4351 194.32 33.8431 195.353 34.6592C196.394 35.4753 196.914 36.617 196.914 38.0845C196.914 38.8257 196.689 39.507 196.24 40.1284C195.791 40.7498 195.162 41.2402 194.354 41.5996C195.267 41.9141 195.963 42.3932 196.442 43.0371C196.929 43.6735 197.172 44.4671 197.172 45.418C197.172 46.8854 196.611 48.0534 195.488 48.9219C194.365 49.7829 192.867 50.2134 190.996 50.2134C189.843 50.2134 188.798 50.0075 187.862 49.5957C186.934 49.1839 186.234 48.6224 185.762 47.9111C185.298 47.1999 185.066 46.3838 185.066 45.4629H187.896C187.896 46.1667 188.188 46.7619 188.772 47.2485C189.356 47.7277 190.097 47.9673 190.996 47.9673C191.999 47.9673 192.804 47.7314 193.41 47.2598C194.024 46.7881 194.331 46.1742 194.331 45.418C194.331 44.4971 194.062 43.8307 193.522 43.4189C192.991 42.9997 192.208 42.79 191.175 42.79H189.255V40.5439H191.074C193.081 40.5439 194.084 39.7316 194.084 38.1069ZM209.829 33.6484H212.67V50H209.829V38.354L202.653 50H199.812V33.6484H202.653V45.3057L209.829 33.6484ZM227.551 35.9395H222.452V50H219.633V35.9395H214.58V33.6484H227.551V35.9395ZM239.264 42.7002H232.548V47.7314H240.398V50H229.707V33.6484H240.32V35.9395H232.548V40.4541H239.264V42.7002ZM248.439 50V33.6484H254.043C255.893 33.6484 257.3 34.019 258.266 34.7603C259.232 35.5015 259.715 36.6058 259.715 38.0732C259.715 38.8219 259.513 39.4958 259.108 40.0947C258.704 40.6937 258.113 41.1579 257.334 41.4873C258.217 41.7269 258.899 42.1799 259.378 42.8462C259.865 43.505 260.108 44.2987 260.108 45.2271C260.108 46.7619 259.614 47.9411 258.625 48.7646C257.645 49.5882 256.237 50 254.403 50H248.439ZM251.281 42.6216V47.7314H254.437C255.327 47.7314 256.024 47.5106 256.525 47.0688C257.027 46.6271 257.278 46.0132 257.278 45.2271C257.278 43.5275 256.409 42.659 254.672 42.6216H251.281ZM251.281 40.5327H254.066C254.949 40.5327 255.638 40.3343 256.132 39.9375C256.634 39.5332 256.885 38.9642 256.885 38.2305C256.885 37.4219 256.653 36.8379 256.188 36.4785C255.732 36.1191 255.017 35.9395 254.043 35.9395H251.281V40.5327Z" fill="white"/>
<path d="M132.57 92.0547H119.352L116.586 100H110.422L123.312 65.875H128.633L141.547 100H135.359L132.57 92.0547ZM121.016 87.2734H130.906L125.961 73.1172L121.016 87.2734ZM165.969 87.5781C165.969 91.5 165.078 94.6328 163.297 96.9766C161.516 99.3047 159.125 100.469 156.125 100.469C153.344 100.469 151.117 99.5547 149.445 97.7266V109.75H143.75V74.6406H149L149.234 77.2188C150.906 75.1875 153.18 74.1719 156.055 74.1719C159.148 74.1719 161.57 75.3281 163.32 77.6406C165.086 79.9375 165.969 83.1328 165.969 87.2266V87.5781ZM160.297 87.0859C160.297 84.5547 159.789 82.5469 158.773 81.0625C157.773 79.5781 156.336 78.8359 154.461 78.8359C152.133 78.8359 150.461 79.7969 149.445 81.7188V92.9688C150.477 94.9375 152.164 95.9219 154.508 95.9219C156.32 95.9219 157.734 95.1953 158.75 93.7422C159.781 92.2734 160.297 90.0547 160.297 87.0859ZM193.016 87.5781C193.016 91.5 192.125 94.6328 190.344 96.9766C188.562 99.3047 186.172 100.469 183.172 100.469C180.391 100.469 178.164 99.5547 176.492 97.7266V109.75H170.797V74.6406H176.047L176.281 77.2188C177.953 75.1875 180.227 74.1719 183.102 74.1719C186.195 74.1719 188.617 75.3281 190.367 77.6406C192.133 79.9375 193.016 83.1328 193.016 87.2266V87.5781ZM187.344 87.0859C187.344 84.5547 186.836 82.5469 185.82 81.0625C184.82 79.5781 183.383 78.8359 181.508 78.8359C179.18 78.8359 177.508 79.7969 176.492 81.7188V92.9688C177.523 94.9375 179.211 95.9219 181.555 95.9219C183.367 95.9219 184.781 95.1953 185.797 93.7422C186.828 92.2734 187.344 90.0547 187.344 87.0859ZM228.195 91.2109C228.195 89.7109 227.664 88.5547 226.602 87.7422C225.555 86.9297 223.656 86.1094 220.906 85.2812C218.156 84.4531 215.969 83.5312 214.344 82.5156C211.234 80.5625 209.68 78.0156 209.68 74.875C209.68 72.125 210.797 69.8594 213.031 68.0781C215.281 66.2969 218.195 65.4062 221.773 65.4062C224.148 65.4062 226.266 65.8438 228.125 66.7188C229.984 67.5938 231.445 68.8438 232.508 70.4688C233.57 72.0781 234.102 73.8672 234.102 75.8359H228.195C228.195 74.0547 227.633 72.6641 226.508 71.6641C225.398 70.6484 223.805 70.1406 221.727 70.1406C219.789 70.1406 218.281 70.5547 217.203 71.3828C216.141 72.2109 215.609 73.3672 215.609 74.8516C215.609 76.1016 216.188 77.1484 217.344 77.9922C218.5 78.8203 220.406 79.6328 223.062 80.4297C225.719 81.2109 227.852 82.1094 229.461 83.125C231.07 84.125 232.25 85.2812 233 86.5938C233.75 87.8906 234.125 89.4141 234.125 91.1641C234.125 94.0078 233.031 96.2734 230.844 97.9609C228.672 99.6328 225.719 100.469 221.984 100.469C219.516 100.469 217.242 100.016 215.164 99.1094C213.102 98.1875 211.492 96.9219 210.336 95.3125C209.195 93.7031 208.625 91.8281 208.625 89.6875H214.555C214.555 91.625 215.195 93.125 216.477 94.1875C217.758 95.25 219.594 95.7812 221.984 95.7812C224.047 95.7812 225.594 95.3672 226.625 94.5391C227.672 93.6953 228.195 92.5859 228.195 91.2109ZM245.914 68.4766V74.6406H250.391V78.8594H245.914V93.0156C245.914 93.9844 246.102 94.6875 246.477 95.125C246.867 95.5469 247.555 95.7578 248.539 95.7578C249.195 95.7578 249.859 95.6797 250.531 95.5234V99.9297C249.234 100.289 247.984 100.469 246.781 100.469C242.406 100.469 240.219 98.0547 240.219 93.2266V78.8594H236.047V74.6406H240.219V68.4766H245.914ZM252.992 87.0859C252.992 84.6016 253.484 82.3672 254.469 80.3828C255.453 78.3828 256.836 76.8516 258.617 75.7891C260.398 74.7109 262.445 74.1719 264.758 74.1719C268.18 74.1719 270.953 75.2734 273.078 77.4766C275.219 79.6797 276.375 82.6016 276.547 86.2422L276.57 87.5781C276.57 90.0781 276.086 92.3125 275.117 94.2812C274.164 96.25 272.789 97.7734 270.992 98.8516C269.211 99.9297 267.148 100.469 264.805 100.469C261.227 100.469 258.359 99.2812 256.203 96.9062C254.062 94.5156 252.992 91.3359 252.992 87.3672V87.0859ZM258.688 87.5781C258.688 90.1875 259.227 92.2344 260.305 93.7188C261.383 95.1875 262.883 95.9219 264.805 95.9219C266.727 95.9219 268.219 95.1719 269.281 93.6719C270.359 92.1719 270.898 89.9766 270.898 87.0859C270.898 84.5234 270.344 82.4922 269.234 80.9922C268.141 79.4922 266.648 78.7422 264.758 78.7422C262.898 78.7422 261.422 79.4844 260.328 80.9688C259.234 82.4375 258.688 84.6406 258.688 87.5781ZM294.664 79.8438C293.914 79.7188 293.141 79.6562 292.344 79.6562C289.734 79.6562 287.977 80.6562 287.07 82.6562V100H281.375V74.6406H286.812L286.953 77.4766C288.328 75.2734 290.234 74.1719 292.672 74.1719C293.484 74.1719 294.156 74.2812 294.688 74.5L294.664 79.8438ZM308.961 100.469C305.352 100.469 302.422 99.3359 300.172 97.0703C297.938 94.7891 296.82 91.7578 296.82 87.9766V87.2734C296.82 84.7422 297.305 82.4844 298.273 80.5C299.258 78.5 300.633 76.9453 302.398 75.8359C304.164 74.7266 306.133 74.1719 308.305 74.1719C311.758 74.1719 314.422 75.2734 316.297 77.4766C318.188 79.6797 319.133 82.7969 319.133 86.8281V89.125H302.562C302.734 91.2188 303.43 92.875 304.648 94.0938C305.883 95.3125 307.43 95.9219 309.289 95.9219C311.898 95.9219 314.023 94.8672 315.664 92.7578L318.734 95.6875C317.719 97.2031 316.359 98.3828 314.656 99.2266C312.969 100.055 311.07 100.469 308.961 100.469ZM308.281 78.7422C306.719 78.7422 305.453 79.2891 304.484 80.3828C303.531 81.4766 302.922 83 302.656 84.9531H313.508V84.5312C313.383 82.625 312.875 81.1875 311.984 80.2188C311.094 79.2344 309.859 78.7422 308.281 78.7422Z" fill="white"/>
</svg>
