<svg xmlns="http://www.w3.org/2000/svg" viewBox="0 0 24 24" id="symbol-sprite.svg_heart-small--red"><g fill="none" fill-rule="evenodd"><path fill="none" d="M0 0h24v24H0z"></path><path d="M12 20.39l.096-.068c.302-.216.64-.467 1.003-.75a32.854 32.854 0 003.048-2.676C18.874 14.169 20.5 11.459 20.5 9c0-2.482-2.017-4.5-4.5-4.5-1.093 0-1.997.336-2.732.898a4.191 4.191 0 00-.65.615c-.103.12-.167.21-.193.252l-.424.686-.426-.685a2.43 2.43 0 00-.193-.253 4.214 4.214 0 00-.652-.615C9.994 4.836 9.09 4.5 8 4.5 5.52 4.5 3.5 6.52 3.5 9c0 2.459 1.626 5.169 4.354 7.895A32.854 32.854 0 0012 20.39z" stroke="#FFF" fill="#F36"></path></g></svg>