<svg width="166" height="60" viewBox="0 0 166 60" fill="none" xmlns="http://www.w3.org/2000/svg">
<path d="M25.4 9.9C25 10.6 24.8 11.6 25 12.5C25.2 13.3 25.6 14.1 26.5 14.7L25.5 16.1C24.3 15.2 23.6 14 23.3 12.9C23 11.5 23.3 10 24 9L25.4 9.9ZM10.8 51.6V47.7C9.2 47.1 7.7 46.2 6.4 45.1C6.7 46.3 7.1 47.4 7.7 48.3C8.5 49.6 9.6 50.7 10.8 51.6ZM10.8 56.5V53.6C8.9 52.5 7.4 51 6.3 49.2C5.2 47.4 4.5 45.4 4.4 43.2C3.3 42 2.4 40.6 1.7 39.1V42.6C1.7 46.8 3.4 50.6 6.2 53.4C7.5 54.7 9.1 55.7 10.8 56.5ZM43.9 9.4C43.7 7.4 42.8 5.6 41.4 4.2C39.9 2.7 37.8 1.7 35.4 1.7H17C12.8 1.7 9 3.4 6.2 6.2C3.4 9 1.7 12.8 1.7 17V24.8C2.4 23.4 3.2 22.1 4.2 20.9L4.3 20.8V17C4.3 13.5 5.7 10.3 8 8C10.3 5.7 13.5 4.3 17 4.3H22.7C22.8 4 23 3.6 23.2 3.3C23.5 2.8 24 2.3 24.6 1.9L25.6 3.3C25.2 3.6 24.9 3.9 24.6 4.3H31.4L32.3 8.6H35.4C35.3 8.2 35.1 7.8 34.9 7.5C34.7 7.2 34.4 6.9 34.1 6.6L35.3 5.4C35.7 5.8 36 6.2 36.3 6.6C36.7 7.2 37 7.9 37.1 8.7H39.7L40 9C40.2 9.5 40.6 9.8 41 10C41.4 10.2 41.8 10.2 42.1 10.2C42.5 10.2 42.9 10.1 43.2 9.9C43.6 9.8 43.8 9.6 43.9 9.4ZM16.9 6C16.5 6.6 16.2 7.3 16.1 8C15.9 8.7 15.8 9.5 15.8 10.2C15.8 12.5 16.8 14.7 18.3 16.2C19.8 17.7 22 18.7 24.3 18.7H35.4C37.7 18.7 39.9 17.7 41.4 16.2C42.7 14.9 43.5 13.3 43.8 11.5C43.3 11.7 42.7 11.9 42.2 11.9C41.6 11.9 40.9 11.8 40.3 11.5C39.7 11.2 39.2 10.8 38.8 10.2H37.2C37 11.2 36.6 12.2 35.7 13.1C35.3 13.5 34.8 13.9 34.3 14.2L33.4 12.8C33.8 12.5 34.2 12.2 34.5 11.9C35 11.3 35.4 10.7 35.5 10.1H31L30.1 6H17.1H16.9ZM14.1 9.1C14.2 8.6 14.3 8.1 14.4 7.6C14.5 7.1 14.7 6.7 14.9 6.2C12.7 6.6 10.8 7.7 9.3 9.2C7.3 11.2 6.1 13.9 6.1 16.9V19C6.9 18.3 7.7 17.7 8.7 17.2V17C8.7 15.6 9 14.3 9.7 13.1C10.3 11.9 11.3 10.9 12.4 10.1C12.7 9.9 13.1 9.6 13.5 9.5C13.6 9.3 13.9 9.2 14.1 9.1ZM15.3 15.1C14.6 13.9 14.2 12.5 14.1 11C13.8 11.1 13.5 11.3 13.3 11.5C12.4 12.1 11.7 12.9 11.2 13.9C10.8 14.7 10.5 15.5 10.5 16.4C11.8 15.8 13.3 15.4 14.8 15.2C14.9 15.1 15.1 15.1 15.3 15.1ZM22.2 36.5C22.2 36.2 22.2 36 22.2 35.7C22.2 35.6 22.2 35.4 22.1 35.3L20.3 36.5H22.2V36.5ZM37 28.4H39L37.1 27.1C37.1 27.2 37 27.4 37 27.5C37 27.8 37 28.1 37 28.4ZM49.1 29.5C51.2 30.3 53 31.4 54.6 32.7C55.9 33.8 57 35.1 57.8 36.5V17C57.8 12.8 56.1 9 53.3 6.2C50.5 3.4 46.7 1.7 42.5 1.7H41C41.6 2.1 42.1 2.5 42.6 3C44.5 4.9 45.6 7.4 45.6 10.2C45.6 13 44.4 15.6 42.6 17.4C40.7 19.3 38.2 20.4 35.4 20.4H24.3C21.5 20.4 18.9 19.2 17.1 17.4C16.9 17.2 16.6 16.9 16.4 16.6C16.2 16.6 16 16.6 15.9 16.6C15.6 16.6 15.3 16.7 15 16.7C11.3 17.2 8 19.1 5.6 21.8C3.3 24.5 1.9 28 1.9 31.8C1.9 36 3.6 39.8 6.4 42.6C9.2 45.4 13 47.1 17.2 47.1H18.6H24.7C25.7 47.1 26.7 46.7 27.5 46.1H21V44.4H28.6C28.7 44.1 28.8 43.8 28.9 43.5H21V41.8H28.9C28.8 41.5 28.7 41.2 28.6 40.9H21V39.2H27.3C26.5 38.6 25.6 38.2 24.5 38.2H17C15.3 38.2 13.7 37.5 12.6 36.4C11.5 35.3 10.8 33.7 10.8 32V22.4L12.1 21.7L14.7 23.5L17.3 21.7H18.3L20.9 23.5L23.5 21.7H24.5L27.1 23.5L29.7 21.7H30.7L33.3 23.5L35.9 21.7H36.9L39.5 23.5L42.1 21.7H43.1L45.7 23.5L48.3 21.7L49.6 22.4L49.1 29.5ZM39.9 57.8L43.6 40.9C43.3 40.8 43 40.8 42.7 40.8H35.2C33.5 40.8 31.9 40.1 30.8 39C29.7 37.9 29 36.3 29 34.6C29 32.9 29.7 31.4 30.8 30.2C31.9 29.1 33.5 28.4 35.2 28.4H35.3C35.3 28.1 35.3 27.7 35.4 27.3C35.5 26.6 35.7 25.9 36 25.4L37.2 25.1L42.2 28.4H42.8C44 28.4 45.2 28.5 46.4 28.8L47.4 24.1L45.8 25.2H44.8L42.2 23.4L39.6 25.2H38.6L36 23.3L33.4 25.1H32.4L29.8 23.3L27.2 25.1H26.2L23.6 23.3L21 25.1H20L17.4 23.3L14.8 25.1H13.8L12.1 23.9V31.9C12.1 33.2 12.6 34.3 13.4 35.1C14.2 35.9 15.4 36.4 16.6 36.4H16.7L21.6 33.2L22.8 33.5C23.1 34 23.3 34.8 23.4 35.5C23.4 35.8 23.5 36.2 23.5 36.5H24.1C25.8 36.5 27.4 37.2 28.5 38.3C29.6 39.4 30.3 41 30.3 42.7C30.3 44.4 29.6 45.9 28.5 47.1C27.4 48.2 25.8 48.9 24.1 48.9H18H16.6C15 48.9 13.5 48.7 12 48.3V57.2C13.4 57.6 14.9 57.9 16.5 57.9H39.9V57.8ZM47.3 45.3C47.3 44 46.8 42.9 46 42.1C45.8 41.9 45.6 41.7 45.3 41.5L41.7 57.8H42.6C44.2 57.8 45.8 57.5 47.3 57.1V45.3ZM57.8 41.6C57.4 38.7 55.8 36.1 53.5 34.1C50.6 31.6 46.7 30.1 42.7 30.1H35.2C34.2 30.1 33.2 30.5 32.4 31.1H39V32.8H31.1C31 33.1 30.9 33.4 30.8 33.7H39V35.4H30.8C30.9 35.7 31 36 31.1 36.3H39V38H32.4C33.2 38.6 34.1 39 35.2 39H42.7C44.4 39 46 39.7 47.1 40.8C48.2 41.9 48.9 43.5 48.9 45.2V56.3C50.5 55.5 52 54.5 53.3 53.2C56.1 50.4 57.8 46.6 57.8 42.4V41.6ZM17 0H42.6C47.3 0 51.5 1.9 54.6 5C57.7 8.1 59.6 12.3 59.6 17V41.5C59.7 42 59.7 42.6 59.7 43.2H59.6C59.5 47.6 57.6 51.7 54.6 54.6C51.5 57.7 47.3 59.6 42.6 59.6H17C12.3 59.6 8.1 57.7 5 54.6C1.9 51.5 0 47.3 0 42.6V17C0 12.3 1.9 8.1 5 5C8.1 1.9 12.3 0 17 0Z" fill="#2B2A29"/>
<path fill-rule="evenodd" clip-rule="evenodd" d="M83.5002 18.1C82.2002 19.5 80.8002 20.9 78.9002 21.8C76.9002 22.8 77.1002 22.7 77.3002 24.9C77.6002 27.4 77.8002 30 78.1002 32.5C78.2002 33.1 78.1002 33.7 77.7002 34.1C76.9002 35 75.5002 34.9 74.9002 33.8C74.8002 33.6 74.7002 33.3 74.6002 33.1C73.7002 30.1 72.9002 27.1 72.4002 24C71.9002 21.3 71.3002 18.7 71.2002 16C71.2002 15.5 71.1002 15 71.2002 14.6C71.2002 13.9 71.5002 13.3 72.0002 12.9C73.9002 11.4 76.0002 10.2 78.4002 9.99998C79.7002 9.89998 80.9002 10.1 82.1002 10.6C84.6002 11.7 85.5002 14.1 84.4002 16.5C84.2002 16.8 84.1002 17.2 83.9002 17.5C83.8002 17.6 83.7002 17.8 83.5002 18.1ZM105.7 27.7C100.7 33.1 91.1002 27.9 93.8002 19.3C95.0002 15.4 99.3002 13.2 102.8 15.6C103.7 16.2 103.3 17.8 102.3 17.8C100.7 17.8 99.5002 18.4 98.8002 19.7C96.7002 23.6 99.2002 28.7 103.4 26C104.1 25.5 104.9 25.3 105.4 25.5C106.1 25.8 106.7 26.6 105.7 27.7ZM116.9 16.5C117.4 15.2 119.1 15.1 119.8 16.4C120.4 17.5 121.1 28 119 28.9C118.5 29.1 118 29.1 117.7 28.8C116.9 28 117 26.7 115.9 27.4C114 28.8 110.5 28 109.1 25.5C105.8 19.4 110.8 14.6 115.1 16.1C116.3 16.6 116.5 16.8 116.9 16.5ZM115.5 19C114.9 18 113.6 17.9 112.9 18.8C111.8 20.2 111.8 22.7 112.6 24.1C113.1 25 114.1 25.1 114.9 24.3C115.2 24 115.5 23.5 115.6 23.1C116.1 22 116.2 20.3 115.5 19ZM126.7 32.3C127.7 31.9 129.5 30.8 130.3 29.7C132.5 26.8 131.1 24.7 129.7 21.5C129 20 127.9 18.2 128.5 16.3C128.9 14.9 129.5 14.1 130.8 14.5C133 15.1 132.9 12.7 129.5 11.9C125.2 10.9 123.4 12.9 124.5 17.3C125.3 20.6 127.8 23.3 126.9 26.7C126.2 29.4 124.8 30.8 124.1 31.7C122.4 33.8 125.9 32.7 126.7 32.3ZM144.1 28.7C143.4 29.4 142.1 30.5 143.5 30.6C146.8 30.7 150.2 29 150.1 25.7C150.1 23.7 148 18.9 150.1 17.3C151.9 16 150.2 15 148.7 14.4C147.3 13.8 145.8 14.7 145.4 16.1C144.4 20 149 23.1 144.1 28.7ZM157.7 24.2C159.2 26.1 160.4 24.1 161.1 23C161.7 22.1 162 20 160.8 19.5C157.8 18.1 156.1 22.3 157.7 24.2ZM161.9 27C161.3 27.5 160.5 27.8 159.7 27.9C158.7 28 157.8 27.9 156.9 27.5C156 27.1 155.2 26.5 154.5 25.7C153 23.7 153.1 19.9 154.9 18.1C155.6 17.4 156.6 17 158.6 16.7C160.5 16.5 162.2 16.9 163.7 18C164.5 18.6 164.9 19.4 165.1 20.4C165.2 21.4 165 22.5 164.4 23.7C163.7 25.1 162.8 26.2 161.9 27ZM132.6 49.5C133.2 49.2 133.7 48.9 134.1 48.2C136.6 43.6 132.6 44.8 131.4 47.3C130.8 48.7 131.2 50.1 132.6 49.5ZM136.8 52.9C136.4 53 135.8 53.2 134.9 52C134.5 51.6 134.3 51.4 133.7 51.7C132.7 52.3 131.6 52.5 130.6 52.2C129.9 52 129.6 51.9 129 51.4C127 49.7 127.7 46.9 128.9 44.9C129.7 43.6 130.8 42.7 132.2 42.3C133.3 42 134 42.2 135 42.4C135.8 42.6 136.8 38.3 137 37.5C137.8 34.4 139.8 36.2 139.8 37.3C139.7 40.6 138.7 45.2 138.1 48.5C137.7 50.9 137.5 52.7 136.8 52.9ZM102.6 39.7C100.6 41.5 100.2 43 100.3 45.7C100.4 47.1 100.8 47.9 101.7 48.9C102.8 50.3 104.3 50.8 106.1 50.7C109.2 50.5 111.2 47.3 111.8 44.7C112.6 41.1 107.1 35.7 102.6 39.7ZM104.2 45.6C104.2 41.9 106.2 40.8 107.2 41.7C108.6 43 108.4 45.6 106.9 46.8C105.5 47.8 104.2 46.7 104.2 45.6ZM92.0002 41.2C92.1002 41.4 92.1002 41.7 92.4002 41.8C92.7002 42 93.2002 41.9 93.5002 41.8C94.2002 41.7 94.8002 41.5 95.4002 41.4C96.6002 41.4 97.5002 42.4 97.3002 43.6C96.9002 45.6 92.5002 45.2 92.7002 46.7C92.9002 48.3 93.1002 49.8 93.4002 51.4C93.5002 51.9 93.5002 52.4 93.5002 53C93.3002 55.3 90.2002 55.7 89.6002 53.4C89.3002 52.3 89.2002 51.2 89.0002 50.1C88.9002 49.6 88.9002 49.1 88.8002 48.6C88.4002 46.5 88.4002 44.4 88.2002 42.3C88.1002 40.9 87.7002 38.4 88.3002 37.1C88.8002 36.1 90.0002 35.5 91.0002 35C92.6002 34.4 93.9002 34.4 95.6002 34.2C98.9002 33.8 99.1002 36.3 96.3002 37.5C94.9002 38.1 93.6002 38.5 92.5002 39.6C92.0002 40 91.8002 40.4 92.0002 41.2ZM115.6 41.5C114.1 43.5 114.1 45 114.9 47.2C115.3 48.4 116 49 117.1 49.7C118.6 50.6 120.2 50.7 121.9 50.2C124.9 49.3 126.1 46 126 43.7C125.8 40.3 119 36.9 115.6 41.5ZM118.7 46.1C117.8 43.1 119.6 41.6 120.7 42.2C122.3 43 122.4 45.5 121.3 46.8C120.3 47.9 118.9 47.1 118.7 46.1ZM90.1002 22.1C90.1002 21.8 90.0002 21.6 90.0002 21.4C90.0002 21.3 90.0002 21.1 90.0002 20.9C90.0002 20.6 90.0002 20.3 89.8002 20.1C89.6002 19.9 89.3002 19.8 88.7002 19.7C88.1002 19.6 87.5002 19.8 86.9002 20.1C86.4002 20.4 86.0002 20.9 85.8002 21.6C85.7002 21.9 85.6002 22.3 85.5002 22.7C85.4002 23.1 85.4002 23.3 85.4002 23.5L84.6002 28.9C84.3002 30.9 85.4002 31.8 86.4002 31.8C87.2002 31.7 87.8002 31 88.0002 30.1L89.8002 22.8L90.1002 22.1ZM91.8002 13.9C91.0002 12.8 89.5002 12.6 88.3002 13.9C88.2002 14 88.0002 14.3 88.0002 14.6C87.4002 18.6 93.5002 16.1 91.8002 13.9ZM76.3002 19.1C76.5002 19.2 76.6002 19.2 76.6002 19.2C78.7002 18.6 80.2002 17.2 81.3002 15.4C81.8002 14.5 81.4002 13.8 80.4002 13.5C79.0002 13 76.9002 13.7 76.0002 14.9C75.8002 15.1 75.7002 15.5 75.7002 15.8C75.7002 16.9 75.8002 18 76.3002 19.1Z" fill="#2B2A29"/>
</svg>
