<svg width="416" height="128" viewBox="0 0 416 128" fill="none" xmlns="http://www.w3.org/2000/svg">
<rect width="416" height="128" rx="16" fill="#2E2E33"/>
<path d="M29.6852 25.4L65.2015 61.95L74.939 51.8563L31.8889 26.0906C31.1714 25.659 30.4027 25.4199 29.6852 25.4ZM26.7127 27.1C26.3924 27.691 26.2002 28.3883 26.2002 29.1719V100.2C26.2002 100.771 26.3155 101.282 26.5077 101.741L62.844 64.3407L26.7127 27.1ZM77.9115 53.6094L67.5077 64.3407L77.9115 75.0188L90.6215 67.475C92.428 66.3926 92.6843 65.018 92.6715 64.2875C92.6522 63.0789 91.9155 61.95 90.6727 61.2594C89.59 60.6551 81.5502 55.8008 77.9115 53.6094ZM65.2015 66.7313L29.3777 103.547C29.9735 103.514 30.6205 103.381 31.2227 103.016C32.6257 102.172 60.999 85.1657 60.999 85.1657L74.9902 76.825L65.2015 66.7313Z" fill="white"/>
<path d="M129.7 54.0205H127.004V50H116.234V54.0205H113.494L113.404 47.7314H114.718C115.37 47.1025 115.89 46.1891 116.279 44.9912C116.669 43.7858 116.919 42.4232 117.032 40.9033L117.458 33.6484H127.768V47.7314H129.846L129.7 54.0205ZM117.93 47.7314H124.938V35.9395H120.165L119.896 40.5439C119.693 43.6211 119.038 46.0169 117.93 47.7314ZM144.76 42.251C144.76 43.8532 144.483 45.2607 143.929 46.4736C143.375 47.679 142.581 48.6074 141.548 49.2588C140.522 49.9027 139.339 50.2246 137.999 50.2246C136.674 50.2246 135.491 49.9027 134.45 49.2588C133.417 48.6074 132.616 47.6828 132.047 46.4849C131.485 45.2869 131.201 43.9056 131.193 42.3408V41.4199C131.193 39.8252 131.474 38.4176 132.036 37.1973C132.605 35.9769 133.402 35.0448 134.428 34.4009C135.461 33.7495 136.644 33.4238 137.977 33.4238C139.309 33.4238 140.488 33.7458 141.514 34.3896C142.547 35.026 143.345 35.9469 143.906 37.1523C144.468 38.3503 144.752 39.7466 144.76 41.3413V42.251ZM141.918 41.3975C141.918 39.5856 141.574 38.1968 140.885 37.231C140.204 36.2651 139.234 35.7822 137.977 35.7822C136.749 35.7822 135.787 36.2651 135.09 37.231C134.402 38.1893 134.05 39.5482 134.035 41.3076V42.251C134.035 44.0479 134.383 45.4367 135.079 46.4175C135.783 47.3983 136.756 47.8887 137.999 47.8887C139.257 47.8887 140.223 47.4095 140.896 46.4512C141.578 45.4928 141.918 44.0928 141.918 42.251V41.3975ZM160.067 44.6768C159.902 46.4212 159.258 47.7839 158.135 48.7646C157.012 49.738 155.519 50.2246 153.654 50.2246C152.352 50.2246 151.202 49.9176 150.207 49.3037C149.218 48.6823 148.455 47.8026 147.916 46.6646C147.376 45.5265 147.096 44.2051 147.073 42.7002V41.1729C147.073 39.6305 147.347 38.2716 147.893 37.0962C148.44 35.9207 149.222 35.0148 150.24 34.3784C151.266 33.742 152.449 33.4238 153.789 33.4238C155.593 33.4238 157.046 33.9142 158.146 34.895C159.247 35.8758 159.887 37.2609 160.067 39.0503H157.237C157.102 37.8748 156.758 37.0288 156.204 36.5122C155.657 35.9881 154.852 35.7261 153.789 35.7261C152.554 35.7261 151.603 36.179 150.937 37.085C150.278 37.9834 149.941 39.3049 149.926 41.0493V42.498C149.926 44.265 150.24 45.6126 150.869 46.541C151.506 47.4694 152.434 47.9336 153.654 47.9336C154.77 47.9336 155.608 47.6828 156.17 47.1812C156.731 46.6795 157.087 45.8447 157.237 44.6768H160.067ZM174.094 35.9395H168.995V50H166.176V35.9395H161.123V33.6484H174.094V35.9395ZM182.135 42.1948L185.414 33.6484H188.57L182.876 47.2148L182.359 48.2368C181.611 49.5695 180.398 50.2358 178.721 50.2358L177.553 50.1685L177.575 47.9224C177.755 47.9523 178.073 47.9673 178.53 47.9673C179.338 47.9673 179.907 47.6229 180.237 46.9341L180.821 45.5527L175.228 33.6484H178.328L182.135 42.1948ZM203.675 50H200.845V35.9395H193.646V50H190.816V33.6484H203.675V50ZM220.094 50H217.264V42.7339H209.953V50H207.111V33.6484H209.953V40.4541H217.264V33.6484H220.094V50ZM236.513 42.251C236.513 43.8532 236.236 45.2607 235.682 46.4736C235.128 47.679 234.334 48.6074 233.301 49.2588C232.275 49.9027 231.092 50.2246 229.752 50.2246C228.427 50.2246 227.244 49.9027 226.203 49.2588C225.17 48.6074 224.369 47.6828 223.8 46.4849C223.238 45.2869 222.954 43.9056 222.946 42.3408V41.4199C222.946 39.8252 223.227 38.4176 223.789 37.1973C224.358 35.9769 225.155 35.0448 226.181 34.4009C227.214 33.7495 228.397 33.4238 229.729 33.4238C231.062 33.4238 232.241 33.7458 233.267 34.3896C234.3 35.026 235.098 35.9469 235.659 37.1523C236.221 38.3503 236.505 39.7466 236.513 41.3413V42.251ZM233.671 41.3975C233.671 39.5856 233.327 38.1968 232.638 37.231C231.957 36.2651 230.987 35.7822 229.729 35.7822C228.502 35.7822 227.54 36.2651 226.843 37.231C226.154 38.1893 225.803 39.5482 225.788 41.3076V42.251C225.788 44.0479 226.136 45.4367 226.832 46.4175C227.536 47.3983 228.509 47.8887 229.752 47.8887C231.01 47.8887 231.976 47.4095 232.649 46.4512C233.331 45.4928 233.671 44.0928 233.671 42.251V41.3975ZM245.07 50V33.6484H250.674C252.524 33.6484 253.931 34.019 254.897 34.7603C255.863 35.5015 256.346 36.6058 256.346 38.0732C256.346 38.8219 256.144 39.4958 255.739 40.0947C255.335 40.6937 254.743 41.1579 253.965 41.4873C254.848 41.7269 255.53 42.1799 256.009 42.8462C256.495 43.505 256.739 44.2987 256.739 45.2271C256.739 46.7619 256.245 47.9411 255.256 48.7646C254.276 49.5882 252.868 50 251.034 50H245.07ZM247.912 42.6216V47.7314H251.067C251.958 47.7314 252.655 47.5106 253.156 47.0688C253.658 46.6271 253.909 46.0132 253.909 45.2271C253.909 43.5275 253.04 42.659 251.303 42.6216H247.912ZM247.912 40.5327H250.697C251.58 40.5327 252.269 40.3343 252.763 39.9375C253.265 39.5332 253.516 38.9642 253.516 38.2305C253.516 37.4219 253.284 36.8379 252.819 36.4785C252.363 36.1191 251.648 35.9395 250.674 35.9395H247.912V40.5327Z" fill="white"/>
<path d="M139.625 95.5703C138.391 97.1797 136.68 98.3984 134.492 99.2266C132.305 100.055 129.82 100.469 127.039 100.469C124.18 100.469 121.648 99.8203 119.445 98.5234C117.242 97.2266 115.539 95.375 114.336 92.9688C113.148 90.5469 112.531 87.7266 112.484 84.5078V81.8359C112.484 76.6797 113.719 72.6562 116.188 69.7656C118.656 66.8594 122.102 65.4062 126.523 65.4062C130.32 65.4062 133.336 66.3438 135.57 68.2188C137.805 70.0938 139.148 72.7969 139.602 76.3281H133.789C133.133 72.2188 130.75 70.1641 126.641 70.1641C123.984 70.1641 121.961 71.125 120.57 73.0469C119.195 74.9531 118.484 77.7578 118.438 81.4609V84.0859C118.438 87.7734 119.211 90.6406 120.758 92.6875C122.32 94.7188 124.484 95.7344 127.25 95.7344C130.281 95.7344 132.438 95.0469 133.719 93.6719V86.9922H126.688V82.4922H139.625V95.5703ZM144.523 87.0859C144.523 84.6016 145.016 82.3672 146 80.3828C146.984 78.3828 148.367 76.8516 150.148 75.7891C151.93 74.7109 153.977 74.1719 156.289 74.1719C159.711 74.1719 162.484 75.2734 164.609 77.4766C166.75 79.6797 167.906 82.6016 168.078 86.2422L168.102 87.5781C168.102 90.0781 167.617 92.3125 166.648 94.2812C165.695 96.25 164.32 97.7734 162.523 98.8516C160.742 99.9297 158.68 100.469 156.336 100.469C152.758 100.469 149.891 99.2812 147.734 96.9062C145.594 94.5156 144.523 91.3359 144.523 87.3672V87.0859ZM150.219 87.5781C150.219 90.1875 150.758 92.2344 151.836 93.7188C152.914 95.1875 154.414 95.9219 156.336 95.9219C158.258 95.9219 159.75 95.1719 160.812 93.6719C161.891 92.1719 162.43 89.9766 162.43 87.0859C162.43 84.5234 161.875 82.4922 160.766 80.9922C159.672 79.4922 158.18 78.7422 156.289 78.7422C154.43 78.7422 152.953 79.4844 151.859 80.9688C150.766 82.4375 150.219 84.6406 150.219 87.5781ZM171.852 87.0859C171.852 84.6016 172.344 82.3672 173.328 80.3828C174.312 78.3828 175.695 76.8516 177.477 75.7891C179.258 74.7109 181.305 74.1719 183.617 74.1719C187.039 74.1719 189.812 75.2734 191.938 77.4766C194.078 79.6797 195.234 82.6016 195.406 86.2422L195.43 87.5781C195.43 90.0781 194.945 92.3125 193.977 94.2812C193.023 96.25 191.648 97.7734 189.852 98.8516C188.07 99.9297 186.008 100.469 183.664 100.469C180.086 100.469 177.219 99.2812 175.062 96.9062C172.922 94.5156 171.852 91.3359 171.852 87.3672V87.0859ZM177.547 87.5781C177.547 90.1875 178.086 92.2344 179.164 93.7188C180.242 95.1875 181.742 95.9219 183.664 95.9219C185.586 95.9219 187.078 95.1719 188.141 93.6719C189.219 92.1719 189.758 89.9766 189.758 87.0859C189.758 84.5234 189.203 82.4922 188.094 80.9922C187 79.4922 185.508 78.7422 183.617 78.7422C181.758 78.7422 180.281 79.4844 179.188 80.9688C178.094 82.4375 177.547 84.6406 177.547 87.5781ZM199.25 87.1328C199.25 83.1953 200.172 80.0547 202.016 77.7109C203.875 75.3516 206.336 74.1719 209.398 74.1719C212.289 74.1719 214.562 75.1797 216.219 77.1953L216.477 74.6406H221.609V99.2266C221.609 102.555 220.57 105.18 218.492 107.102C216.43 109.023 213.641 109.984 210.125 109.984C208.266 109.984 206.445 109.594 204.664 108.812C202.898 108.047 201.555 107.039 200.633 105.789L203.328 102.367C205.078 104.445 207.234 105.484 209.797 105.484C211.688 105.484 213.18 104.969 214.273 103.938C215.367 102.922 215.914 101.422 215.914 99.4375V97.7266C214.273 99.5547 212.086 100.469 209.352 100.469C206.383 100.469 203.953 99.2891 202.062 96.9297C200.188 94.5703 199.25 91.3047 199.25 87.1328ZM204.922 87.625C204.922 90.1719 205.438 92.1797 206.469 93.6484C207.516 95.1016 208.961 95.8281 210.805 95.8281C213.102 95.8281 214.805 94.8438 215.914 92.875V81.7188C214.836 79.7969 213.148 78.8359 210.852 78.8359C208.977 78.8359 207.516 79.5781 206.469 81.0625C205.438 82.5469 204.922 84.7344 204.922 87.625ZM233.539 100H227.844V64H233.539V100ZM250.93 100.469C247.32 100.469 244.391 99.3359 242.141 97.0703C239.906 94.7891 238.789 91.7578 238.789 87.9766V87.2734C238.789 84.7422 239.273 82.4844 240.242 80.5C241.227 78.5 242.602 76.9453 244.367 75.8359C246.133 74.7266 248.102 74.1719 250.273 74.1719C253.727 74.1719 256.391 75.2734 258.266 77.4766C260.156 79.6797 261.102 82.7969 261.102 86.8281V89.125H244.531C244.703 91.2188 245.398 92.875 246.617 94.0938C247.852 95.3125 249.398 95.9219 251.258 95.9219C253.867 95.9219 255.992 94.8672 257.633 92.7578L260.703 95.6875C259.688 97.2031 258.328 98.3828 256.625 99.2266C254.938 100.055 253.039 100.469 250.93 100.469ZM250.25 78.7422C248.688 78.7422 247.422 79.2891 246.453 80.3828C245.5 81.4766 244.891 83 244.625 84.9531H255.477V84.5312C255.352 82.625 254.844 81.1875 253.953 80.2188C253.062 79.2344 251.828 78.7422 250.25 78.7422ZM283.977 87.3203V100H278.047V65.875H291.102C294.914 65.875 297.938 66.8672 300.172 68.8516C302.422 70.8359 303.547 73.4609 303.547 76.7266C303.547 80.0703 302.445 82.6719 300.242 84.5312C298.055 86.3906 294.984 87.3203 291.031 87.3203H283.977ZM283.977 82.5625H291.102C293.211 82.5625 294.82 82.0703 295.93 81.0859C297.039 80.0859 297.594 78.6484 297.594 76.7734C297.594 74.9297 297.031 73.4609 295.906 72.3672C294.781 71.2578 293.234 70.6875 291.266 70.6562H283.977V82.5625ZM314.258 100H308.562V64H314.258V100ZM335.633 100C335.383 99.5156 335.164 98.7266 334.977 97.6328C333.164 99.5234 330.945 100.469 328.32 100.469C325.773 100.469 323.695 99.7422 322.086 98.2891C320.477 96.8359 319.672 95.0391 319.672 92.8984C319.672 90.1953 320.672 88.125 322.672 86.6875C324.688 85.2344 327.562 84.5078 331.297 84.5078H334.789V82.8438C334.789 81.5312 334.422 80.4844 333.688 79.7031C332.953 78.9062 331.836 78.5078 330.336 78.5078C329.039 78.5078 327.977 78.8359 327.148 79.4922C326.32 80.1328 325.906 80.9531 325.906 81.9531H320.211C320.211 80.5625 320.672 79.2656 321.594 78.0625C322.516 76.8438 323.766 75.8906 325.344 75.2031C326.938 74.5156 328.711 74.1719 330.664 74.1719C333.633 74.1719 336 74.9219 337.766 76.4219C339.531 77.9062 340.438 80 340.484 82.7031V94.1406C340.484 96.4219 340.805 98.2422 341.445 99.6016V100H335.633ZM329.375 95.8984C330.5 95.8984 331.555 95.625 332.539 95.0781C333.539 94.5312 334.289 93.7969 334.789 92.875V88.0938H331.719C329.609 88.0938 328.023 88.4609 326.961 89.1953C325.898 89.9297 325.367 90.9688 325.367 92.3125C325.367 93.4062 325.727 94.2812 326.445 94.9375C327.18 95.5781 328.156 95.8984 329.375 95.8984ZM354.945 91.8438L360.102 74.6406H366.172L356.094 103.844C354.547 108.109 351.922 110.242 348.219 110.242C347.391 110.242 346.477 110.102 345.477 109.82V105.414L346.555 105.484C347.992 105.484 349.07 105.219 349.789 104.688C350.523 104.172 351.102 103.297 351.523 102.062L352.344 99.8828L343.438 74.6406H349.578L354.945 91.8438Z" fill="white"/>
</svg>
