<svg width="118" height="155" viewBox="0 0 118 155" fill="none" xmlns="http://www.w3.org/2000/svg">
<rect x="70" width="48" height="92" rx="10" fill="#D8DCF9"/>
<circle cx="50" cy="92" r="50" fill="url(#paint0_linear)"/>
<path d="M56.8279 76.5599V74.8279C56.8279 74.5626 56.9332 74.3083 57.1207 74.1207C57.3083 73.9332 57.5626 73.8279 57.8279 73.8279C58.0931 73.8279 58.3474 73.9332 58.535 74.1207C58.7225 74.3083 58.8279 74.5626 58.8279 74.8279V76.5599C59.2083 76.3392 59.5055 75.9993 59.6735 75.5928C59.8414 75.1863 59.8707 74.7358 59.7569 74.3109C59.643 73.8861 59.3924 73.5106 59.0437 73.2425C58.695 72.9744 58.2677 72.8287 57.8279 72.8279C57.388 72.8287 56.9607 72.9744 56.612 73.2425C56.2633 73.5106 56.0127 73.8861 55.8988 74.3109C55.785 74.7358 55.8143 75.1863 55.9822 75.5928C56.1502 75.9993 56.4474 76.3392 56.8279 76.5599ZM58.8279 78.7019V90.8279C58.8279 99.0989 65.5569 105.828 73.8279 105.828C82.0989 105.828 88.8279 99.0989 88.8279 90.8279V78.7019C87.9697 78.479 87.2096 77.9779 86.6667 77.2768C86.1239 76.5758 85.8288 75.7145 85.8279 74.8279C85.8279 72.6219 87.6219 70.8279 89.8279 70.8279C92.0339 70.8279 93.8279 72.6219 93.8279 74.8279C93.8269 75.7145 93.5318 76.5758 92.989 77.2768C92.4461 77.9779 91.686 78.479 90.8279 78.7019V90.8279C90.8279 100.202 83.2018 107.828 73.8279 107.828C64.4539 107.828 56.8279 100.202 56.8279 90.8279V78.7019C55.9697 78.479 55.2096 77.9779 54.6667 77.2768C54.1239 76.5758 53.8288 75.7145 53.8279 74.8279C53.8279 72.6219 55.6219 70.8279 57.8279 70.8279C60.0339 70.8279 61.8279 72.6219 61.8279 74.8279C61.8269 75.7145 61.5318 76.5758 60.989 77.2768C60.4461 77.9779 59.686 78.479 58.8279 78.7019ZM88.8279 76.5599V74.8279C88.8279 74.5626 88.9332 74.3083 89.1207 74.1207C89.3083 73.9332 89.5626 73.8279 89.8279 73.8279C90.0931 73.8279 90.3474 73.9332 90.535 74.1207C90.7225 74.3083 90.8279 74.5626 90.8279 74.8279V76.5599C91.2083 76.3392 91.5055 75.9993 91.6735 75.5928C91.8414 75.1863 91.8707 74.7358 91.7569 74.3109C91.643 73.8861 91.3924 73.5106 91.0437 73.2425C90.695 72.9744 90.2677 72.8287 89.8279 72.8279C89.388 72.8287 88.9607 72.9744 88.612 73.2425C88.2633 73.5106 88.0127 73.8861 87.8988 74.3109C87.785 74.7358 87.8143 75.1863 87.9822 75.5928C88.1502 75.9993 88.4474 76.3392 88.8279 76.5599V76.5599ZM108.828 152.828C110.482 152.828 111.828 151.482 111.828 149.828V66.8279H35.8279V149.828C35.8279 151.482 37.1739 152.828 38.8279 152.828H108.828ZM45.2419 56.8279L37.2419 64.8279H110.414L102.414 56.8279H45.2419ZM103.242 54.8279L113.828 65.4138V149.828C113.828 152.585 111.585 154.828 108.828 154.828H38.8279C36.0709 154.828 33.8279 152.585 33.8279 149.828V65.4138L44.4138 54.8279H103.242ZM84.8279 62.8279C84.2973 62.8277 83.7885 62.6168 83.4134 62.2416C83.0384 61.8663 82.8277 61.3574 82.8279 60.8269C82.828 60.2963 83.0389 59.7875 83.4141 59.4124C83.7894 59.0374 84.2983 58.8267 84.8288 58.8269C85.3594 58.827 85.8682 59.0379 86.2433 59.4131C86.6183 59.7884 86.829 60.2973 86.8288 60.8279C86.8287 61.3584 86.6178 61.8672 86.2426 62.2423C85.8673 62.6173 85.3584 62.828 84.8279 62.8279V62.8279ZM62.8279 62.8279C62.2973 62.8277 61.7885 62.6168 61.4134 62.2416C61.0384 61.8663 60.8277 61.3574 60.8279 60.8269C60.828 60.2963 61.0389 59.7875 61.4141 59.4124C61.7894 59.0374 62.2983 58.8267 62.8288 58.8269C63.3594 58.827 63.8682 59.0379 64.2433 59.4131C64.6183 59.7884 64.829 60.2973 64.8288 60.8279C64.8287 61.3584 64.6178 61.8672 64.2426 62.2423C63.8673 62.6173 63.3584 62.828 62.8279 62.8279V62.8279ZM32.2419 54.8279L34.3629 52.7069C34.4557 52.614 34.5293 52.5038 34.5796 52.3825C34.6298 52.2612 34.6557 52.1312 34.6557 51.9999C34.6557 51.8685 34.6298 51.7385 34.5796 51.6172C34.5293 51.4959 34.4557 51.3857 34.3629 51.2929C34.27 51.2 34.1598 51.1264 34.0385 51.0761C33.9172 51.0259 33.7872 51 33.6558 51C33.5245 51 33.3945 51.0259 33.2732 51.0761C33.1519 51.1264 33.0417 51.2 32.9488 51.2929L30.8288 53.4138L28.7069 51.2929C28.5193 51.1053 28.265 51 27.9999 51C27.7347 51 27.4804 51.1053 27.2929 51.2929C27.1053 51.4804 27 51.7347 27 51.9999C27 52.265 27.1053 52.5193 27.2929 52.7069L29.4138 54.8279L27.2938 56.9488C27.1063 57.1362 27.0009 57.3904 27.0009 57.6555C27.0008 57.9206 27.106 58.1748 27.2934 58.3624C27.4807 58.5499 27.7349 58.6553 28 58.6553C28.2651 58.6554 28.5193 58.5502 28.7069 58.3629L30.8279 56.2419L32.9488 58.3629C33.0415 58.456 33.1517 58.53 33.273 58.5804C33.3943 58.6309 33.5244 58.6569 33.6558 58.6569C33.7873 58.6569 33.9174 58.6309 34.0387 58.5804C34.16 58.53 34.2702 58.456 34.3629 58.3629C34.4558 58.2701 34.5295 58.1599 34.5798 58.0385C34.6302 57.9172 34.6561 57.7872 34.6561 57.6558C34.6561 57.5245 34.6302 57.3945 34.5798 57.2732C34.5295 57.1518 34.4558 57.0416 34.3629 56.9488L32.2429 54.8279H32.2419Z" fill="#2E2E33"/>
<defs>
<linearGradient id="paint0_linear" x1="13" y1="125.5" x2="89.5" y2="62" gradientUnits="userSpaceOnUse">
<stop stop-color="#F8C1B3"/>
<stop offset="1" stop-color="#FBD5B3" stop-opacity="0.77"/>
</linearGradient>
</defs>
</svg>
